<?xml version="1.0" encoding="UTF-8" standalone="no"?>
<!-- Created with Inkscape (http://www.inkscape.org/) -->

<svg
   width="210mm"
   height="297mm"
   viewBox="0 0 210 297"
   version="1.1"
   id="svg1"
   xml:space="preserve"
   inkscape:export-filename="cancelled.png"
   inkscape:export-xdpi="171.044"
   inkscape:export-ydpi="171.044"
   sodipodi:docname="icons.svg"
   inkscape:version="1.3.2 (091e20e, 2023-11-25)"
   xmlns:inkscape="http://www.inkscape.org/namespaces/inkscape"
   xmlns:sodipodi="http://sodipodi.sourceforge.net/DTD/sodipodi-0.dtd"
   xmlns="http://www.w3.org/2000/svg"
   xmlns:svg="http://www.w3.org/2000/svg"><sodipodi:namedview
     id="namedview1"
     pagecolor="#ffffff"
     bordercolor="#666666"
     borderopacity="1.0"
     inkscape:showpageshadow="2"
     inkscape:pageopacity="0.0"
     inkscape:pagecheckerboard="0"
     inkscape:deskcolor="#d1d1d1"
     inkscape:document-units="mm"
     inkscape:zoom="0.2973261"
     inkscape:cx="401.91561"
     inkscape:cy="713.02183"
     inkscape:window-width="1584"
     inkscape:window-height="881"
     inkscape:window-x="64"
     inkscape:window-y="55"
     inkscape:window-maximized="0"
     inkscape:current-layer="layer1"><inkscape:page
       x="0"
       y="0"
       width="210"
       height="297"
       id="page12"
       margin="0"
       bleed="0"
       inkscape:export-filename="manage.png"
       inkscape:export-xdpi="171.044"
       inkscape:export-ydpi="171.044" /><inkscape:page
       x="220"
       y="0"
       width="395.81665"
       height="395.81668"
       id="page13"
       margin="0"
       bleed="0" /></sodipodi:namedview><defs
     id="defs1"><rect
       x="71.34659"
       y="456.61818"
       width="637.36287"
       height="349.59829"
       id="rect9" /><rect
       x="71.34659"
       y="456.61818"
       width="637.36287"
       height="349.59829"
       id="rect10" /></defs><g
     inkscape:label="Layer 1"
     inkscape:groupmode="layer"
     id="layer1"><rect
       style="fill:#c981be;fill-opacity:1;stroke-width:0.74215625;stroke-linecap:round;stroke-linejoin:round;stroke-dasharray:0.37107812, 1.48431453;stroke-dashoffset:0"
       id="rect3"
       width="200"
       height="200"
       x="5.663136"
       y="56.002113"
       ry="38.032787"
       inkscape:export-filename="profile.png"
       inkscape:export-xdpi="171.044"
       inkscape:export-ydpi="171.044" /><g
       id="Object"
       transform="matrix(0.2204163,0,0,0.2204163,202.06957,43.094363)">
	<g
   id="g8">
		<polygon
   style="fill:#616e7d"
   points="588.283,249.5 398.799,249.5 398.799,308.121 435.45,308.121 435.45,298.713 448.196,298.713 448.196,308.121 538.886,308.121 538.886,298.713 551.631,298.713 551.631,308.121 588.283,308.121 "
   id="polygon2" />
		<path
   style="fill:#aad4c8"
   d="m 551.631,335.088 v -9.411 h 45.433 c 2.318,0 4.575,-0.938 6.209,-2.573 1.628,-1.634 2.566,-3.897 2.566,-6.206 v -71.628 -4.545 c 0,-2.312 -0.938,-4.576 -2.566,-6.204 -1.634,-1.64 -3.891,-2.572 -6.209,-2.572 H 390.011 c -2.306,0 -4.569,0.932 -6.209,2.572 -1.64,1.628 -2.566,3.891 -2.566,6.204 v 4.545 71.629 c 0,2.309 0.944,4.572 2.566,6.206 1.64,1.634 3.903,2.573 6.209,2.573 h 45.439 v 9.411 h 12.746 v -9.411 h 90.69 v 9.411 h 12.745 z M 448.196,308.121 v -9.408 H 435.45 v 9.408 H 398.799 V 249.5 h 189.484 v 58.62 h -36.652 v -9.408 h -12.745 v 9.408 h -90.69 z"
   id="path2" />
		<path
   style="fill:#ffffff"
   d="M 826.201,870.324 V 392.577 H 473.566 V 870.324 Z M 519.888,453.322 h 284.895 v 33.28 H 519.888 Z m -24.904,75.308 h 309.798 v 33.278 H 494.984 Z m 0,75.312 h 309.798 v 33.277 H 494.984 Z m 0,75.309 h 309.798 v 33.278 H 494.984 Z m 0,75.312 h 266.508 v 33.271 H 494.984 Z"
   id="path3" />
		<path
   style="fill:#616e7d"
   d="m 456.735,887.157 c 1.828,1.846 4.363,2.893 6.972,2.893 h 372.359 c 2.596,0 5.138,-1.047 6.966,-2.893 1.846,-1.834 2.893,-4.376 2.893,-6.972 V 382.712 c 0,-2.596 -1.047,-5.135 -2.893,-6.969 -1.828,-1.846 -4.37,-2.893 -6.966,-2.893 H 711 v -96.298 c 0,-8.242 -3.329,-16.298 -9.163,-22.12 -5.816,-5.828 -13.877,-9.163 -22.108,-9.163 H 605.84 v 71.629 c 0,2.309 -0.938,4.572 -2.566,6.206 -1.634,1.634 -3.891,2.573 -6.209,2.573 h -45.433 v 9.411 h -12.745 v -9.411 h -90.69 v 9.411 H 435.45 v -9.411 h -45.439 c -2.306,0 -4.569,-0.938 -6.209,-2.573 -1.622,-1.634 -2.566,-3.897 -2.566,-6.206 V 245.27 h -73.89 c -8.231,0 -16.286,3.335 -22.12,9.157 -5.816,5.828 -9.151,13.884 -9.151,22.126 v 524.293 c 0,8.24 3.335,16.295 9.151,22.118 5.834,5.825 13.889,9.16 22.12,9.16 h 146.496 v 48.063 c 0,2.595 1.048,5.137 2.893,6.97 z m 16.831,-494.58 H 826.202 V 870.324 H 473.566 Z"
   id="path4" />
		<rect
   x="519.888"
   y="453.32199"
   style="fill:#82bfab"
   width="284.89499"
   height="33.279999"
   id="rect4" />
		<rect
   x="494.98401"
   y="528.63"
   style="fill:#82bfab"
   width="309.798"
   height="33.278"
   id="rect5" />
		<rect
   x="494.98401"
   y="603.94202"
   style="fill:#82bfab"
   width="309.798"
   height="33.277"
   id="rect6" />
		<rect
   x="494.98401"
   y="679.25098"
   style="fill:#82bfab"
   width="309.798"
   height="33.278"
   id="rect7" />
		<rect
   x="494.98401"
   y="754.56299"
   style="fill:#82bfab"
   width="266.508"
   height="33.271"
   id="rect8" />
	</g>
</g><g
       id="g11"
       transform="translate(-210.16525,200.09746)"><text
         xml:space="preserve"
         transform="matrix(0.26458333,0,0,0.26458333,10.167867,-12.942587)"
         id="text3"
         style="font-style:normal;font-weight:normal;font-size:40px;line-height:1.25;font-family:sans-serif;white-space:pre;shape-inside:url(#rect9);fill:#000000;fill-opacity:1;stroke:none"><tspan
           x="71.345703"
           y="696.9283"
           id="tspan2"><tspan
             style="font-size:266.667px;font-family:'Arial Rounded MT Bold';-inkscape-font-specification:'Arial Rounded MT Bold, Normal';fill:#ffffff"
             id="tspan1">CEU</tspan></tspan></text><text
         xml:space="preserve"
         transform="matrix(0.26458333,0,0,0.26458333,27.686441,49.552044)"
         id="text10"
         style="font-style:normal;font-weight:normal;font-size:40px;line-height:1.25;font-family:sans-serif;white-space:pre;shape-inside:url(#rect10);fill:#000000;fill-opacity:1;stroke:none"><tspan
           x="71.345703"
           y="576.77327"
           id="tspan4"><tspan
             style="font-size:133.333px;font-family:'Arial Rounded MT Bold';-inkscape-font-specification:'Arial Rounded MT Bold, Normal';fill:#ffffff"
             id="tspan3">credits</tspan></tspan></text><rect
         style="fill:none;fill-opacity:1;stroke:#ffffff;stroke-width:2.64583;stroke-linecap:round;stroke-linejoin:round;stroke-dasharray:none;stroke-dashoffset:0;stroke-opacity:1"
         id="rect11"
         width="172.31355"
         height="172.31355"
         x="19.506357"
         y="69.845337"
         ry="32.767826" /></g><g
       id="Object-1"
       transform="matrix(0.2890441,0,0,0.2890441,-334.43402,-51.407987)">
	<g
   id="g5">
		<path
   style="fill:#406a1b;fill-opacity:1"
   d="m 320.177,623.096 -8.903,7.395 129.563,16.111 c 18.822,7.492 38.455,12.843 58.693,16.114 6.797,-65.867 76.813,-117.825 161.977,-117.825 34.509,0 66.512,8.552 92.857,23.083 16.467,-24.831 25.824,-52.979 25.824,-82.816 0,-100.022 -104.58,-181.401 -233.137,-181.401 -128.558,0 -233.149,81.379 -233.149,181.401 0,35.91 13.472,70.494 38.987,100.331 l -0.206,0.157 2.493,2.642 c -2.869,5.821 -19.736,22.107 -34.999,34.808 z m 71.644,-218.425 h 303.916 v 16.507 H 391.821 Z m 0,61.232 h 303.916 v 16.51 H 391.821 Z m 0,61.238 h 160.906 v 16.51 H 391.821 Z"
   id="path2-1" />
		<path
   style="fill:#f5f6e2;fill-opacity:1"
   d="m 512.275,673.243 c 0,63.42 66.96,115.011 149.232,115.011 18.192,0 36.083,-2.566 53.173,-7.611 l 3.631,-1.068 41.844,38.669 v -58.85 l 2.784,-1.997 c 30.369,-21.763 47.787,-52.441 47.787,-84.154 0,-63.413 -66.96,-115.01 -149.219,-115.01 -82.272,0 -149.232,51.597 -149.232,115.01 z"
   id="path3-0" />
		<rect
   x="391.82101"
   y="404.67099"
   style="fill:#bfbe82;fill-opacity:1"
   width="303.91599"
   height="16.507"
   id="rect3-1" />
		<rect
   x="391.82101"
   y="465.90302"
   style="fill:#bfbe82;fill-opacity:1"
   width="303.91599"
   height="16.51"
   id="rect4-3" />
		<rect
   x="391.82101"
   y="527.14099"
   style="fill:#bfbe82;fill-opacity:1"
   width="160.90601"
   height="16.51"
   id="rect5-8" />
	</g>
</g><g
       id="g12"
       transform="translate(226.52542,246.66102)"><text
         xml:space="preserve"
         style="font-style:normal;font-weight:normal;font-size:10.5833px;line-height:1.25;font-family:sans-serif;fill:#000000;fill-opacity:1;stroke:none;stroke-width:0.264583"
         x="-119.58031"
         y="202.2858"
         id="text11"
         transform="rotate(-36.796913)"><tspan
           sodipodi:role="line"
           id="tspan11"
           style="font-style:normal;font-variant:normal;font-weight:normal;font-stretch:normal;font-size:45.8611px;font-family:'Arial Rounded MT Bold';-inkscape-font-specification:'Arial Rounded MT Bold, Normal';font-variant-ligatures:normal;font-variant-caps:normal;font-variant-numeric:normal;font-variant-east-asian:normal;fill:#ffffff;fill-opacity:1;stroke-width:0.264583"
           x="-119.58031"
           y="202.2858">cancelled</tspan></text><path
         style="fill:none;stroke:#ffffff;stroke-width:2.64583;stroke-linecap:round;stroke-linejoin:miter;stroke-dasharray:none;stroke-opacity:1"
         d="M 20.135593,179.96186 151.01694,75.508473"
         id="path11" /><path
         style="fill:none;stroke:#ffffff;stroke-width:2.64583;stroke-linecap:round;stroke-linejoin:miter;stroke-dasharray:none;stroke-opacity:1"
         d="M 62.923729,239.11017 193.80508,134.65678"
         id="path12" /></g></g><g
     id="g1"
     inkscape:groupmode="layer"
     inkscape:label="1"
     transform="matrix(0.26458333,0,0,0.26458334,220.00001,0)"><g
       id="g13"
       transform="matrix(0.69083133,0,0,0.69083133,1815.1008,1233.537)"><path
         id="path3-4"
         d="m -846.04755,-97.363788 c -74.27334,65.238665 -187.53735,58.287999 -253.07595,-16.365332 -65.1707,-74.57067 -57.94,-187.69866 16.5626,-252.88666 74.1907,-65.56 187.52401,-58.28133 252.82668,16.092 65.652,74.524 58.124,187.88399 -16.31333,253.159992 z M -564.5329,-244.67045 c -0.43333,-15.37467 -1.904,-30.56933 -4.14133,-45.44533 l -79.17866,-13.11867 -26.83467,-74.90933 52.756,-60.48133 c -16.00133,-26.624 -35.04267,-51.128 -56.56267,-73.17333 l -71.78666,36.03733 -65.81333,-44.752 7.11466,-80.05867 c -27.29333,-11.512 -56.15999,-20.16399 -86.12533,-25.35999 l -37.296,71.23866 -79.59871,1.86667 -40.8826,-69.26933 c -30.596,6.97066 -59.8413,17.35199 -87.28,30.84133 l 11.7267,79.508 -63.26,48.39199 -73.7134,-31.82266 c -20.2333,23.15733 -37.8813,48.68 -52.3813,76.2 l 56.0973,57.352 -22.5973,76.27733 -78.3453,17.64933 c -1.408,15.78267 -2.0094,31.91467 -1.5067,48.304 0.5547,14.95866 1.8973,29.624 3.9253,44.09066 l 79.208,13.34534 26.5934,74.994662 -53.1107,60.339998 c 16.0533,26.6413329 35.0067,51.413332 56.5373,73.521332 l 71.9267,-35.810666 65.684,44.942666 -7.4453,80.077328 c 28.168,11.91867 57.8746,20.89334 88.7626,26.172 l 37.08535,-71.407996 79.58933,-2.2 41.01867,69.170666 c 30.57599,-7.108 59.77333,-17.64267 87.19599,-31.19067 l -11.95733,-79.462662 63.04267,-48.6653317 73.79199,31.6213327 c 20.24,-23.3213329 37.83867,-48.883999 52.22267,-76.375998 l -56.42533,-57.125331 22.31733,-76.50533 78.40133,-17.77467 c 1.264,-15.50933 1.79333,-31.21866 1.24533,-47.03333"
         style="fill:#516784;fill-opacity:1;fill-rule:nonzero;stroke:none;stroke-width:0.133333" /><path
         id="path4-4"
         d="m -808.12889,-54.198456 c -98.11733,86.211998 -247.74661,76.554665 -333.95461,-21.597333 -86.4534,-98.332001 -76.728,-247.814661 21.3773,-334.129321 98.2146,-86.224 247.94931,-76.44267 334.17464,21.74133 86.24533,98.12666 76.61733,247.75999 -21.59733,333.985324 z m 40.92267,-350.945324 c -95.59467,-108.85333 -261.59738,-119.69733 -370.48398,-24.104 -108.7667,95.69333 -119.5467,261.41733 -23.7013,370.433324 95.576,108.817331 261.46128,119.522664 370.23994,23.944 108.88667,-95.593334 119.56133,-261.486664 23.94534,-370.273324"
         style="fill:#d8d9da;fill-opacity:1;fill-rule:nonzero;stroke:none;stroke-width:0.133333" /><path
         id="path5"
         d="m -1116.0009,54.234875 2.6227,1.794667 -6.0947,79.393328 -1.3506,0.684 c 28.168,11.91867 57.8746,20.89334 88.7626,26.172 l -0.7267,-1.3 37.81205,-70.107996 79.58933,-2.2 41.80667,67.802666 -0.788,1.368 c 30.57599,-7.108 59.77333,-17.64267 87.19599,-31.19067 l -1.312,-0.564 -10.64533,-78.898662 63.04267,-48.6653317 73.71466,30.2719997 0.0773,1.349333 c 20.24,-23.3213329 37.83867,-48.883999 52.22267,-76.375998 l -1.38533,0.372 -55.04,-57.497331 22.31733,-76.50533 77.38266,-18.75867 1.01867,0.984 c 1.264,-15.50933 1.79333,-31.21866 1.24533,-47.03333 -0.43333,-15.37467 -1.904,-30.56933 -4.14133,-45.44533 l -0.84267,1.13733 -22.21066,-4.04267 c -148.716,214.449332 -358.17333,307.391996 -524.27331,347.255995"
         style="fill:#3e5770;fill-opacity:1;fill-rule:nonzero;stroke:none;stroke-width:0.133333" /><path
         id="path6"
         d="m -791.15156,-34.870456 c 37.35467,-32.793333 63.14267,-73.861334 77.05467,-118.057334 -14.556,13.27467 -29.35467,25.81067 -44.33733,37.64667 -12.70134,22.409332 -29.24934,43.133331 -49.696,61.082664 -44.65867,39.238666 -99.988,58.5506655 -155.15067,58.7653321 -17.94933,7.5106669 -35.77199,14.3213329 -53.36671,20.4853329 77.62805,15.738666 161.45605,-3.653333 225.49604,-59.922665"
         style="fill:#b1b2b3;fill-opacity:1;fill-rule:nonzero;stroke:none;stroke-width:0.133333" /><path
         id="path7"
         d="m -1125.6435,-529.09711 -7.6187,-64.41467 c 0,0 38.0933,-20.08666 67.1853,-24.93466 0,0 -47.1,17.316 -59.5666,89.34933"
         style="fill:#65829e;fill-opacity:1;fill-rule:nonzero;stroke:none;stroke-width:0.133333" /></g></g><g
     id="g14"
     transform="matrix(0.5161337,0,0,0.5161337,57.374182,-161.77361)"><path
       id="path5-9"
       d="m 256.15752,619.11027 c 0,45.27903 -18.5988,86.21535 -48.56797,115.58764 -2.63596,2.58234 -5.3608,5.08 -8.17033,7.47887 -5.14491,4.40267 -10.56923,8.48784 -16.24296,12.21672 -25.50512,16.7922 -56.04121,26.5571 -88.85765,26.5571 -32.81645,0 -63.35219,-9.7649 -88.8573097,-26.5571 -5.67407996,-3.72888 -11.09839,-7.81405 -16.2433003,-12.21672 -2.80953,-2.39887 -5.53438,-4.89653 -8.17034,-7.47887 -29.96882,-29.37229 -48.56903,-70.30861 -48.56903,-115.58764 0,-89.3833 72.4577303,-161.84032 161.83998,-161.84032 89.38224,0 161.83891,72.45702 161.83891,161.84032"
       style="fill:#feffc9;fill-opacity:1;fill-rule:nonzero;stroke:none;stroke-width:0.0352777" /><path
       id="path6-9"
       d="m 207.58955,734.69791 c -2.63596,2.58234 -5.3608,5.08 -8.17033,7.47887 -5.14491,4.40267 -10.56923,8.48784 -16.24296,12.21672 -25.50512,16.7922 -56.04121,26.5571 -88.85765,26.5571 -32.81645,0 -63.35219,-9.7649 -88.8573097,-26.5571 -5.67407996,-3.72888 -11.09839,-7.81405 -16.2433003,-12.21672 -2.80953,-2.39887 -5.53438,-4.89653 -8.17034,-7.47887 6.46501,-18.35856 21.2315803,-33.15758 40.52994,-39.243 l 48.39546,-15.28587 v -7.98688 C 63.93492,668.62616 58.48133,664.53747 54.00458,661.47183 45.67796,655.86972 40.12665,647.06086 38.47212,637.1725 L 35.8912,621.742 c -8.08143,0 -14.6057,-6.52639 -14.6057,-14.60853 v -34.08539 c 0,-20.15419 8.1788,-38.41044 21.37127,-51.65725 13.24751,-13.19389 31.45402,-21.3748 51.66184,-21.3748 40.31403,0 73.03311,32.72014 73.03311,73.03205 v 34.08539 c 0,8.08214 -6.52428,14.60853 -14.60572,14.60853 l -2.58091,15.4305 c -1.65453,9.88836 -7.25205,18.69722 -15.57902,24.29933 -4.48063,3.01625 -9.83721,7.15433 -15.92156,10.71033 v 7.98688 l 48.34888,15.28587 c 19.33189,6.08542 34.10691,20.88444 40.57616,39.243"
       style="fill:#6e7070;fill-opacity:1;fill-rule:nonzero;stroke:none;stroke-width:0.0352777" /></g></svg>
